AmstelvarAlpha-wdth84-srfr0.ufo
<glyph name="quotesingle" format="1">
  <advance width="248"/>
  <unicode hex="0027"/>
  <outline>
    <contour>
      <point x="98" y="964" type="line"/>
      <point x="8" y="1423" type="line"/>
      <point x="8" y="1471"/>
      <point x="65" y="1558"/>
      <point x="124" y="1558" type="qcurve" smooth="yes"/>
      <point x="183" y="1558"/>
      <point x="240" y="1471"/>
      <point x="240" y="1423" type="qcurve"/>
      <point x="148" y="964" type="line"/>
    </contour>
  </outline>
</glyph>
<glyph name="parenleft" format="1">
  <advance width="327"/>
  <unicode hex="0028"/>
  <outline>
    <contour>
      <point x="10" y="672" type="qcurve" smooth="yes"/>
      <point x="10" y="923"/>
      <point x="160" y="1399"/>
      <point x="237" y="1526" type="qcurve"/>
      <point x="325" y="1476" type="line"/>
      <point x="266" y="1335"/>
      <point x="205" y="908"/>
      <point x="205" y="672" type="qcurve" smooth="yes"/>
      <point x="205" y="436"/>
      <point x="258" y="40"/>
      <point x="324" y="-136" type="qcurve"/>
      <point x="237" y="-182" type="line"/>
      <point x="156" y="-16"/>
      <point x="10" y="411"/>
    </contour>
  </outline>
</glyph>
<glyph name="comma" format="1">
  <advance width="264"/>
  <unicode hex="002C"/>
  <outline>
    <contour>
      <point x="2" y="-228" type="line"/>
      <point x="42" y="-195"/>
      <point x="126" y="-80"/>
      <point x="141" y="-13" type="qcurve"/>
      <point x="80" y="-13"/>
      <point x="23" y="49"/>
      <point x="23" y="97" type="qcurve" smooth="yes"/>
      <point x="23" y="145"/>
      <point x="85" y="206"/>
      <point x="134" y="206" type="qcurve" smooth="yes"/>
      <point x="180" y="206"/>
      <point x="245" y="147"/>
      <point x="245" y="79" type="qcurve" smooth="yes"/>
      <point x="245" y="-16"/>
      <point x="132" y="-215"/>
      <point x="45" y="-277" type="qcurve"/>
    </contour>
  </outline>
</glyph>
<glyph name="five" format="1">
  <advance width="363"/>
  <unicode hex="0035"/>
  <outline>
    <contour>
      <point x="6" y="12" type="qcurve"/>
      <point x="6" y="122" type="line"/>
      <point x="22" y="112"/>
      <point x="47" y="102"/>
      <point x="67" y="102" type="qcurve" smooth="yes"/>
      <point x="119" y="102"/>
      <point x="171" y="259"/>
      <point x="171" y="467" type="qcurve" smooth="yes"/>
      <point x="171" y="671"/>
      <point x="126" y="790"/>
      <point x="83" y="790" type="qcurve" smooth="yes"/>
      <point x="48" y="790" type="line"/>
      <point x="81" y="898" type="line"/>
      <point x="177" y="938" type="line"/>
      <point x="251" y="938"/>
      <point x="359" y="749"/>
      <point x="359" y="467" type="qcurve" smooth="yes"/>
      <point x="359" y="219"/>
      <point x="239" y="-20"/>
      <point x="129" y="-20" type="qcurve" smooth="yes"/>
      <point x="93" y="-20"/>
      <point x="32" y="-3"/>
    </contour>
    <contour>
      <point x="48" y="790" type="qcurve"/>
      <point x="43" y="1467" type="line"/>
      <point x="70" y="1500" type="line"/>
      <point x="346" y="1500" type="line"/>
      <point x="346" y="1324" type="line"/>
      <point x="175" y="1324" type="line"/>
      <point x="165" y="1313" type="line"/>
      <point x="165" y="1023"/>
      <point x="126" y="790"/>
    </contour>
  </outline>
</glyph>
<glyph name="six" format="1">
  <advance width="451"/>
  <unicode hex="0036"/>
  <outline>
    <contour>
      <point x="8" y="653" type="qcurve" smooth="yes"/>
      <point x="8" y="1145"/>
      <point x="174" y="1515"/>
      <point x="319" y="1532" type="qcurve"/>
      <point x="319" y="1408" type="line"/>
      <point x="231" y="1383"/>
      <point x="191" y="1125"/>
      <point x="191" y="676" type="qcurve" smooth="yes"/>
      <point x="191" y="154"/>
      <point x="207" y="104"/>
      <point x="227" y="104" type="qcurve" smooth="yes"/>
      <point x="245" y="104"/>
      <point x="266" y="145"/>
      <point x="266" y="457" type="qcurve" smooth="yes"/>
      <point x="266" y="737"/>
      <point x="248" y="803"/>
      <point x="221" y="803" type="qcurve" smooth="yes"/>
      <point x="210" y="803"/>
      <point x="191" y="797"/>
      <point x="186" y="794" type="qcurve"/>
      <point x="186" y="869" type="line"/>
      <point x="192" y="894"/>
      <point x="239" y="926"/>
      <point x="267" y="926" type="qcurve" smooth="yes"/>
      <point x="351" y="926"/>
      <point x="447" y="724"/>
      <point x="447" y="475" type="qcurve" smooth="yes"/>
      <point x="447" y="218"/>
      <point x="327" y="-21"/>
      <point x="231" y="-21" type="qcurve" smooth="yes"/>
      <point x="141" y="-21"/>
      <point x="8" y="246"/>
    </contour>
  </outline>
</glyph>
<glyph name="semicolon" format="1">
  <advance width="286"/>
  <unicode hex="003B"/>
  <outline>
    <contour>
      <point x="12" y="-228" type="line"/>
      <point x="52" y="-195"/>
      <point x="136" y="-80"/>
      <point x="151" y="-13" type="qcurve"/>
      <point x="90" y="-13"/>
      <point x="33" y="49"/>
      <point x="33" y="97" type="qcurve" smooth="yes"/>
      <point x="33" y="145"/>
      <point x="95" y="206"/>
      <point x="144" y="206" type="qcurve" smooth="yes"/>
      <point x="190" y="206"/>
      <point x="255" y="147"/>
      <point x="255" y="79" type="qcurve" smooth="yes"/>
      <point x="255" y="-16"/>
      <point x="142" y="-215"/>
      <point x="55" y="-277" type="qcurve"/>
    </contour>
    <contour>
      <point x="30" y="904" type="qcurve" smooth="yes"/>
      <point x="30" y="952"/>
      <point x="96" y="1023"/>
      <point x="148" y="1023" type="qcurve" smooth="yes"/>
      <point x="200" y="1023"/>
      <point x="268" y="952"/>
      <point x="268" y="904" type="qcurve" smooth="yes"/>
      <point x="268" y="857"/>
      <point x="200" y="786"/>
      <point x="148" y="786" type="qcurve" smooth="yes"/>
      <point x="96" y="786"/>
      <point x="30" y="857"/>
    </contour>
  </outline>
</glyph>
<glyph name="at" format="1">
  <advance width="852"/>
  <unicode hex="0040"/>
  <outline>
    <contour>
      <point x="6" y="746" type="qcurve" smooth="yes"/>
      <point x="6" y="1062"/>
      <point x="227" y="1506"/>
      <point x="446" y="1506" type="qcurve" smooth="yes"/>
      <point x="634" y="1506"/>
      <point x="846" y="1130"/>
      <point x="846" y="825" type="qcurve" smooth="yes"/>
      <point x="846" y="595"/>
      <point x="714" y="354"/>
      <point x="582" y="354" type="qcurve" smooth="yes"/>
      <point x="494" y="354"/>
      <point x="425" y="446"/>
      <point x="425" y="509" type="qcurve" smooth="yes"/>
      <point x="429" y="1014" type="line" smooth="yes"/>
      <point x="429" y="1071"/>
      <point x="399" y="1114"/>
      <point x="375" y="1114" type="qcurve" smooth="yes"/>
      <point x="357" y="1114"/>
      <point x="327" y="1092"/>
      <point x="299" y="1041" type="qcurve"/>
      <point x="246" y="1088" type="line"/>
      <point x="271" y="1147"/>
      <point x="359" y="1231"/>
      <point x="428" y="1231" type="qcurve" smooth="yes"/>
      <point x="505" y="1231"/>
      <point x="589" y="1122"/>
      <point x="590" y="1041" type="qcurve" smooth="yes"/>
      <point x="595" y="509" type="line" smooth="yes"/>
      <point x="595" y="477"/>
      <point x="614" y="456"/>
      <point x="640" y="456" type="qcurve" smooth="yes"/>
      <point x="708" y="456"/>
      <point x="760" y="617"/>
      <point x="760" y="809" type="qcurve" smooth="yes"/>
      <point x="760" y="1041"/>
      <point x="617" y="1369"/>
      <point x="438" y="1369" type="qcurve" smooth="yes"/>
      <point x="253" y="1369"/>
      <point x="97" y="1047"/>
      <point x="98" y="761" type="qcurve" smooth="yes"/>
      <point x="99" y="443"/>
      <point x="275" y="101"/>
      <point x="454" y="101" type="qcurve" smooth="yes"/>
      <point x="524" y="101"/>
      <point x="638" y="148"/>
      <point x="669" y="178" type="qcurve"/>
      <point x="697" y="119" type="line"/>
      <point x="654" y="56"/>
      <point x="512" y="-16"/>
      <point x="435" y="-16" type="qcurve" smooth="yes"/>
      <point x="231" y="-16"/>
      <point x="6" y="405"/>
    </contour>
    <contour>
      <point x="175" y="606" type="qcurve" smooth="yes"/>
      <point x="175" y="739"/>
      <point x="306" y="884"/>
      <point x="437" y="962" type="qcurve"/>
      <point x="437" y="882" type="line"/>
      <point x="390" y="829"/>
      <point x="355" y="754"/>
      <point x="355" y="616" type="qcurve" smooth="yes"/>
      <point x="355" y="501"/>
      <point x="370" y="467"/>
      <point x="386" y="467" type="qcurve" smooth="yes"/>
      <point x="404" y="467"/>
      <point x="425" y="534"/>
      <point x="425" y="627" type="qcurve"/>
      <point x="490" y="627" type="line"/>
      <point x="491" y="494"/>
      <point x="392" y="354"/>
      <point x="320" y="354" type="qcurve" smooth="yes"/>
      <point x="248" y="354"/>
      <point x="175" y="494"/>
    </contour>
  </outline>
</glyph>
<glyph name="D" format="1">
  <advance width="504"/>
  <unicode hex="0044"/>
  <outline>
    <contour>
      <point x="8" y="0" type="line"/>
      <point x="8" y="100" type="line"/>
      <point x="46" y="100" type="line"/>
      <point x="48" y="754" type="line"/>
      <point x="46" y="1386" type="line"/>
      <point x="8" y="1386" type="line"/>
      <point x="8" y="1500" type="line"/>
      <point x="220" y="1500" type="line" smooth="yes"/>
      <point x="344" y="1500"/>
      <point x="496" y="1219"/>
      <point x="496" y="777" type="qcurve" smooth="yes"/>
      <point x="496" y="310"/>
      <point x="356" y="0"/>
      <point x="241" y="0" type="qcurve" smooth="yes"/>
    </contour>
    <contour>
      <point x="223" y="100" type="line"/>
      <point x="227" y="100"/>
      <point x="241" y="100"/>
      <point x="244" y="100" type="qcurve"/>
      <point x="288" y="100"/>
      <point x="306" y="326"/>
      <point x="306" y="761" type="qcurve" smooth="yes"/>
      <point x="306" y="1196"/>
      <point x="272" y="1386"/>
      <point x="245" y="1386" type="qcurve" smooth="yes"/>
      <point x="240" y="1386"/>
      <point x="227" y="1386"/>
      <point x="223" y="1386" type="qcurve"/>
      <point x="223" y="754" type="line"/>
    </contour>
  </outline>
</glyph>
<glyph name="E" format="1">
  <advance width="470"/>
  <unicode hex="0045"/>
  <outline>
    <contour>
      <point x="8" y="0" type="line"/>
      <point x="8" y="100" type="line"/>
      <point x="46" y="100" type="line"/>
      <point x="48" y="783" type="line"/>
      <point x="46" y="1386" type="line"/>
      <point x="8" y="1386" type="line"/>
      <point x="8" y="1500" type="line"/>
      <point x="402" y="1500" type="line"/>
      <point x="402" y="1252" type="line"/>
      <point x="299" y="1252" type="line"/>
      <point x="299" y="1386" type="line"/>
      <point x="226" y="1386" type="line"/>
      <point x="225" y="1366" type="line"/>
      <point x="223" y="783" type="line"/>
      <point x="225" y="124" type="line"/>
      <point x="225" y="100" type="line"/>
      <point x="338" y="100" type="line"/>
      <point x="373" y="278" type="line"/>
      <point x="468" y="278" type="line"/>
      <point x="431" y="0" type="line"/>
    </contour>
    <contour>
      <point x="147" y="738" type="line"/>
      <point x="147" y="834" type="line"/>
      <point x="296" y="834" type="line"/>
      <point x="296" y="944" type="line"/>
      <point x="381" y="944" type="line"/>
      <point x="381" y="628" type="line"/>
      <point x="296" y="628" type="line"/>
      <point x="296" y="738" type="line"/>
    </contour>
  </outline>
</glyph>
<glyph name="K" format="1">
  <advance width="532"/>
  <unicode hex="004B"/>
  <outline>
    <contour>
      <point x="8" y="0" type="line"/>
      <point x="8" y="100" type="line"/>
      <point x="46" y="100" type="line"/>
      <point x="48" y="754" type="line"/>
      <point x="46" y="1386" type="line"/>
      <point x="8" y="1386" type="line"/>
      <point x="8" y="1500" type="line"/>
      <point x="254" y="1500" type="line"/>
      <point x="254" y="1386" type="line"/>
      <point x="224" y="1386" type="line"/>
      <point x="212" y="754" type="line"/>
      <point x="224" y="100" type="line"/>
      <point x="254" y="100" type="line"/>
      <point x="254" y="0" type="line"/>
    </contour>
    <contour>
      <point x="176" y="497" type="line"/>
      <point x="153" y="674" type="line"/>
      <point x="367" y="1386" type="line"/>
      <point x="297" y="1386" type="line"/>
      <point x="297" y="1500" type="line"/>
      <point x="524" y="1500" type="line"/>
      <point x="524" y="1386" type="line"/>
      <point x="477" y="1386" type="line"/>
    </contour>
    <contour>
      <point x="239" y="721" type="line"/>
      <point x="345" y="1048" type="line"/>
      <point x="498" y="100" type="line"/>
      <point x="533" y="100" type="line"/>
      <point x="533" y="0" type="line"/>
      <point x="284" y="0" type="line"/>
      <point x="284" y="100" type="line"/>
      <point x="320" y="100" type="line"/>
    </contour>
  </outline>
</glyph>
<glyph name="R" format="1">
  <advance width="548"/>
  <unicode hex="0052"/>
  <outline>
    <contour>
      <point x="8" y="0" type="line"/>
      <point x="8" y="100" type="line"/>
      <point x="46" y="100" type="line"/>
      <point x="48" y="754" type="line"/>
      <point x="46" y="1386" type="line"/>
      <point x="8" y="1386" type="line"/>
      <point x="8" y="1500" type="line"/>
      <point x="263" y="1500" type="line" smooth="yes"/>
      <point x="377" y="1500"/>
      <point x="487" y="1354"/>
      <point x="487" y="1166" type="qcurve" smooth="yes"/>
      <point x="487" y="978"/>
      <point x="393" y="778"/>
      <point x="283" y="778" type="qcurve" smooth="yes"/>
      <point x="220" y="778"/>
      <point x="177" y="782"/>
      <point x="136" y="791" type="qcurve"/>
      <point x="133" y="880" type="line"/>
      <point x="211" y="880" type="line"/>
      <point x="246" y="880" type="line" smooth="yes"/>
      <point x="286" y="880"/>
      <point x="305" y="993"/>
      <point x="305" y="1151" type="qcurve" smooth="yes"/>
      <point x="305" y="1306"/>
      <point x="282" y="1386"/>
      <point x="257" y="1386" type="qcurve" smooth="yes"/>
      <point x="222" y="1386" type="line"/>
      <point x="228" y="1379" type="line"/>
      <point x="224" y="744" type="line"/>
      <point x="226" y="100" type="line"/>
      <point x="262" y="100" type="line"/>
      <point x="262" y="0" type="line"/>
    </contour>
    <contour>
      <point x="244" y="800" type="line"/>
      <point x="427" y="810" type="line"/>
      <point x="520" y="124" type="line" smooth="yes"/>
      <point x="522" y="108"/>
      <point x="532" y="103"/>
      <point x="542" y="100" type="qcurve"/>
      <point x="542" y="0" type="line"/>
      <point x="381" y="0" type="line"/>
      <point x="344" y="31" type="line"/>
    </contour>
  </outline>
</glyph>
<glyph name="bracketright" format="1">
  <advance width="319"/>
  <unicode hex="005D"/>
  <outline>
    <contour>
      <point x="280" y="508" type="line"/>
      <point x="280" y="-360" type="line"/>
      <point x="280" y="-380" type="line"/>
      <point x="280" y="-480" type="line"/>
      <point x="16" y="-480" type="line"/>
      <point x="16" y="-360" type="line"/>
      <point x="112" y="-360" type="line"/>
      <point x="124" y="508" type="line"/>
      <point x="112" y="1380" type="line"/>
      <point x="16" y="1380" type="line"/>
      <point x="16" y="1500" type="line"/>
      <point x="280" y="1500" type="line"/>
      <point x="280" y="1400" type="line"/>
      <point x="280" y="1380" type="line"/>
    </contour>
  </outline>
</glyph>
<glyph name="c" format="1">
  <advance width="394"/>
  <unicode hex="0063"/>
  <outline>
    <contour>
      <point x="6.0" y="500.0" type="qcurve" smooth="yes"/>
      <point x="6.0" y="769.0"/>
      <point x="129.0" y="1022.0"/>
      <point x="243.0" y="1022.0" type="qcurve" smooth="yes"/>
      <point x="274.0" y="1022.0"/>
      <point x="340" y="964"/>
      <point x="365" y="911" type="qcurve"/>
      <point x="303" y="813" type="line"/>
      <point x="293" y="862"/>
      <point x="265" y="903"/>
      <point x="239" y="903" type="qcurve" smooth="yes"/>
      <point x="200" y="903"/>
      <point x="185.0" y="803.0"/>
      <point x="185.0" y="495.0" type="qcurve" smooth="yes"/>
      <point x="185.0" y="187.0"/>
      <point x="199.0" y="108.0"/>
      <point x="231.0" y="108.0" type="qcurve" smooth="yes"/>
      <point x="265.0" y="108.0"/>
      <point x="292.0" y="167.0"/>
      <point x="302.0" y="210.0" type="qcurve"/>
      <point x="394.0" y="179.0" type="line"/>
      <point x="377.0" y="85.0"/>
      <point x="299.0" y="-22.0"/>
      <point x="228.0" y="-22.0" type="qcurve" smooth="yes"/>
      <point x="125.0" y="-22.0"/>
      <point x="6.0" y="231.0"/>
    </contour>
    <contour>
      <point x="297" y="881" type="line"/>
      <point x="307" y="1020" type="line"/>
      <point x="397" y="1020" type="line"/>
      <point x="397" y="747" type="line"/>
      <point x="297" y="747" type="line"/>
    </contour>
  </outline>
</glyph>
<glyph name="e" format="1">
  <advance width="430"/>
  <unicode hex="0065"/>
  <outline>
    <contour>
      <point x="6" y="500" type="qcurve" smooth="yes"/>
      <point x="6" y="774"/>
      <point x="131" y="1022"/>
      <point x="231" y="1022" type="qcurve" smooth="yes"/>
      <point x="323" y="1022"/>
      <point x="418" y="795"/>
      <point x="428" y="590" type="qcurve"/>
      <point x="270" y="590" type="line"/>
      <point x="270" y="768"/>
      <point x="257" y="908"/>
      <point x="226" y="908" type="qcurve" smooth="yes"/>
      <point x="197" y="908"/>
      <point x="179" y="776"/>
      <point x="179" y="520" type="qcurve" smooth="yes"/>
      <point x="179" y="240"/>
      <point x="199" y="101"/>
      <point x="243" y="101" type="qcurve" smooth="yes"/>
      <point x="275" y="101"/>
      <point x="309" y="161"/>
      <point x="318" y="192" type="qcurve"/>
      <point x="400" y="168" type="line"/>
      <point x="390" y="97"/>
      <point x="306" y="-22"/>
      <point x="226" y="-22" type="qcurve" smooth="yes"/>
      <point x="125" y="-22"/>
      <point x="6" y="226"/>
    </contour>
    <contour>
      <point x="78" y="528" type="line"/>
      <point x="78" y="614" type="line"/>
      <point x="402" y="614" type="line"/>
      <point x="428" y="590" type="line"/>
      <point x="428" y="528" type="line"/>
    </contour>
  </outline>
</glyph>
<glyph name="g" format="1">
  <advance width="472"/>
  <unicode hex="0067"/>
  <outline>
    <contour>
      <point x="-63" y="-204" type="qcurve" smooth="yes"/>
      <point x="-63" y="-119"/>
      <point x="51" y="1"/>
      <point x="123" y="29" type="qcurve"/>
      <point x="158" y="2" type="line"/>
      <point x="111" y="-25"/>
      <point x="31" y="-118"/>
      <point x="31" y="-177" type="qcurve" smooth="yes"/>
      <point x="31" y="-250"/>
      <point x="135" y="-313"/>
      <point x="220" y="-313" type="qcurve" smooth="yes"/>
      <point x="333" y="-313"/>
      <point x="429" y="-226"/>
      <point x="429" y="-159" type="qcurve" smooth="yes"/>
      <point x="429" y="-96"/>
      <point x="328" y="-39"/>
      <point x="233" y="-29" type="qcurve" smooth="yes"/>
      <point x="127" y="-18"/>
      <point x="-3" y="72"/>
      <point x="-3" y="149" type="qcurve" smooth="yes"/>
      <point x="-3" y="229"/>
      <point x="69" y="320"/>
      <point x="121" y="345" type="qcurve"/>
      <point x="177" y="287" type="line"/>
      <point x="138" y="262"/>
      <point x="109" y="237"/>
      <point x="109" y="202" type="qcurve" smooth="yes"/>
      <point x="109" y="169"/>
      <point x="190" y="143"/>
      <point x="280" y="132" type="qcurve" smooth="yes"/>
      <point x="398" y="118"/>
      <point x="563" y="10"/>
      <point x="563" y="-112" type="qcurve" smooth="yes"/>
      <point x="563" y="-257"/>
      <point x="370" y="-418"/>
      <point x="235" y="-418" type="qcurve" smooth="yes"/>
      <point x="99" y="-418"/>
      <point x="-63" y="-300"/>
    </contour>
    <contour>
      <point x="9" y="629" type="qcurve" smooth="yes"/>
      <point x="9" y="831"/>
      <point x="118" y="1022"/>
      <point x="225" y="1022" type="qcurve" smooth="yes"/>
      <point x="332" y="1022"/>
      <point x="448" y="827"/>
      <point x="450" y="634" type="qcurve" smooth="yes"/>
      <point x="452" y="441"/>
      <point x="332" y="217"/>
      <point x="228" y="217" type="qcurve" smooth="yes"/>
      <point x="124" y="217"/>
      <point x="9" y="427"/>
    </contour>
    <contour>
      <point x="184" y="626" type="qcurve" smooth="yes"/>
      <point x="184" y="413"/>
      <point x="203" y="319"/>
      <point x="234" y="319" type="qcurve" smooth="yes"/>
      <point x="265" y="319"/>
      <point x="284" y="417"/>
      <point x="284" y="628" type="qcurve" smooth="yes"/>
      <point x="284" y="839"/>
      <point x="262" y="908"/>
      <point x="234" y="908" type="qcurve" smooth="yes"/>
      <point x="206" y="908"/>
      <point x="184" y="839"/>
    </contour>
    <contour>
      <point x="298" y="930" type="line"/>
      <point x="283" y="1000" type="line"/>
      <point x="466" y="1020" type="line"/>
      <point x="466" y="940" type="line"/>
    </contour>
  </outline>
</glyph>
<glyph name="j" format="1">
  <advance width="278"/>
  <unicode hex="006A"/>
  <outline>
    <contour>
      <point x="-14" y="-416" type="line"/>
      <point x="-14" y="-357" type="line"/>
      <point x="57" y="-357" type="line"/>
      <point x="55" y="527" type="line"/>
      <point x="49" y="910" type="line"/>
      <point x="6" y="910" type="line"/>
      <point x="6" y="1000" type="line"/>
      <point x="159" y="1000" type="line"/>
      <point x="189" y="1000" type="line"/>
      <point x="229" y="960" type="line"/>
      <point x="223" y="527" type="line"/>
      <point x="225" y="-204" type="line" smooth="yes"/>
      <point x="225" y="-323"/>
      <point x="123" y="-416"/>
      <point x="34" y="-416" type="qcurve" smooth="yes"/>
    </contour>
    <contour>
      <point x="20" y="1337" type="qcurve" smooth="yes"/>
      <point x="20.0" y="1384.0"/>
      <point x="82.0" y="1445.0"/>
      <point x="130" y="1445" type="qcurve" smooth="yes"/>
      <point x="178.0" y="1445.0"/>
      <point x="240.0" y="1384.0"/>
      <point x="240" y="1337" type="qcurve" smooth="yes"/>
      <point x="240.0" y="1290.0"/>
      <point x="178.0" y="1229.0"/>
      <point x="130" y="1229" type="qcurve" smooth="yes"/>
      <point x="82.0" y="1229.0"/>
      <point x="20.0" y="1290.0"/>
    </contour>
  </outline>
</glyph>
<glyph name="k" format="1">
  <advance width="557"/>
  <unicode hex="006B"/>
  <outline>
    <contour>
      <point x="6" y="0" type="line"/>
      <point x="6" y="90" type="line"/>
      <point x="49" y="90" type="line"/>
      <point x="51" y="527" type="line"/>
      <point x="49" y="1410" type="line"/>
      <point x="2" y="1410" type="line"/>
      <point x="2" y="1500" type="line"/>
      <point x="162" y="1500" type="line"/>
      <point x="189" y="1500" type="line"/>
      <point x="219" y="1470" type="line"/>
      <point x="217" y="507" type="line"/>
      <point x="219" y="90" type="line"/>
      <point x="249" y="90" type="line"/>
      <point x="249" y="0" type="line"/>
    </contour>
    <contour>
      <point x="186" y="420" type="line"/>
      <point x="178" y="529" type="line"/>
      <point x="352" y="910" type="line"/>
      <point x="292" y="910" type="line"/>
      <point x="292" y="1000" type="line"/>
      <point x="508" y="1000" type="line"/>
      <point x="508" y="910" type="line"/>
      <point x="470" y="910" type="line"/>
    </contour>
    <contour>
      <point x="236" y="570" type="line"/>
      <point x="343" y="779" type="line"/>
      <point x="523" y="90" type="line"/>
      <point x="553" y="90" type="line"/>
      <point x="553" y="0" type="line"/>
      <point x="421" y="0" type="line"/>
      <point x="383" y="10" type="line"/>
      <point x="352" y="42" type="line"/>
    </contour>
  </outline>
</glyph>
<glyph name="m" format="1">
  <advance width="767"/>
  <unicode hex="006D"/>
  <outline>
    <contour>
      <point x="6" y="0" type="line"/>
      <point x="6" y="90" type="line"/>
      <point x="49" y="90" type="line"/>
      <point x="51" y="527" type="line"/>
      <point x="49" y="910" type="line"/>
      <point x="6" y="910" type="line"/>
      <point x="6" y="1000" type="line"/>
      <point x="179" y="1000" type="line"/>
      <point x="214" y="973" type="line"/>
      <point x="219" y="872" type="line"/>
      <point x="217" y="527" type="line"/>
      <point x="219" y="90" type="line"/>
      <point x="250" y="90" type="line"/>
      <point x="250" y="0" type="line"/>
    </contour>
    <contour>
      <point x="218" y="844" type="qcurve"/>
      <point x="180" y="864" type="line"/>
      <point x="201" y="931"/>
      <point x="281" y="1021"/>
      <point x="346" y="1021" type="qcurve" smooth="yes"/>
      <point x="407" y="1021"/>
      <point x="467" y="955"/>
      <point x="467" y="906" type="qcurve" smooth="yes"/>
      <point x="467" y="841"/>
      <point x="465" y="527"/>
      <point x="465" y="527" type="qcurve"/>
      <point x="470" y="90" type="line"/>
      <point x="499" y="90" type="line"/>
      <point x="499" y="0" type="line"/>
      <point x="274" y="0" type="line"/>
      <point x="274" y="90" type="line"/>
      <point x="300" y="90" type="line"/>
      <point x="302" y="527" type="line"/>
      <point x="302" y="827" type="line" smooth="yes"/>
      <point x="302" y="853"/>
      <point x="284" y="877"/>
      <point x="265" y="877" type="qcurve" smooth="yes"/>
      <point x="251" y="877"/>
      <point x="230" y="862"/>
    </contour>
    <contour>
      <point x="466" y="844" type="qcurve"/>
      <point x="428" y="864" type="line"/>
      <point x="449" y="931"/>
      <point x="529" y="1021"/>
      <point x="594" y="1021" type="qcurve" smooth="yes"/>
      <point x="655" y="1021"/>
      <point x="715" y="955"/>
      <point x="715" y="906" type="qcurve" smooth="yes"/>
      <point x="715" y="841"/>
      <point x="713" y="527"/>
      <point x="713" y="527" type="qcurve"/>
      <point x="718" y="90" type="line"/>
      <point x="761" y="90" type="line"/>
      <point x="761" y="0" type="line"/>
      <point x="524" y="0" type="line"/>
      <point x="524" y="90" type="line"/>
      <point x="548" y="90" type="line"/>
      <point x="550" y="527" type="line"/>
      <point x="550" y="827" type="line" smooth="yes"/>
      <point x="550" y="853"/>
      <point x="532" y="877"/>
      <point x="513" y="877" type="qcurve" smooth="yes"/>
      <point x="499" y="877"/>
      <point x="478" y="862"/>
    </contour>
  </outline>
</glyph>
<glyph name="n" format="1">
  <advance width="519"/>
  <unicode hex="006E"/>
  <outline>
    <contour>
      <point x="6" y="0" type="line"/>
      <point x="6" y="90" type="line"/>
      <point x="51" y="90" type="line"/>
      <point x="51" y="527" type="line"/>
      <point x="49" y="910" type="line"/>
      <point x="6" y="910" type="line"/>
      <point x="6" y="1000" type="line"/>
      <point x="179" y="1000" type="line"/>
      <point x="214" y="973" type="line"/>
      <point x="219" y="872" type="line"/>
      <point x="217" y="527" type="line"/>
      <point x="217" y="90" type="line"/>
      <point x="250" y="90" type="line"/>
      <point x="250" y="0" type="line"/>
    </contour>
    <contour>
      <point x="218" y="844" type="qcurve"/>
      <point x="180" y="864" type="line"/>
      <point x="201" y="931"/>
      <point x="281" y="1021"/>
      <point x="346" y="1021" type="qcurve" smooth="yes"/>
      <point x="407" y="1021"/>
      <point x="467" y="955"/>
      <point x="467" y="906" type="qcurve" smooth="yes"/>
      <point x="467" y="841"/>
      <point x="468" y="527"/>
      <point x="468" y="527" type="qcurve"/>
      <point x="468" y="90" type="line"/>
      <point x="513" y="90" type="line"/>
      <point x="513" y="0" type="line"/>
      <point x="274" y="0" type="line"/>
      <point x="274" y="90" type="line"/>
      <point x="302" y="90" type="line"/>
      <point x="302" y="527" type="line"/>
      <point x="302" y="827" type="line" smooth="yes"/>
      <point x="302" y="853"/>
      <point x="284" y="877"/>
      <point x="265" y="877" type="qcurve" smooth="yes"/>
      <point x="251" y="877"/>
      <point x="230" y="862"/>
    </contour>
  </outline>
</glyph>
<glyph name="q" format="1">
  <advance width="490"/>
  <unicode hex="0071"/>
  <outline>
    <contour>
      <point x="8" y="499" type="qcurve" smooth="yes"/>
      <point x="8" y="782"/>
      <point x="124" y="1021"/>
      <point x="220" y="1021" type="qcurve" smooth="yes"/>
      <point x="265" y="1021"/>
      <point x="351" y="942"/>
      <point x="364" y="888" type="qcurve"/>
      <point x="283" y="853" type="line"/>
      <point x="275" y="882"/>
      <point x="255" y="911"/>
      <point x="235" y="911" type="qcurve" smooth="yes"/>
      <point x="209" y="911"/>
      <point x="189" y="798"/>
      <point x="189" y="503" type="qcurve" smooth="yes"/>
      <point x="189" y="210"/>
      <point x="196" y="87"/>
      <point x="228" y="87" type="qcurve" smooth="yes"/>
      <point x="257" y="87"/>
      <point x="285" y="163"/>
      <point x="292" y="210" type="qcurve"/>
      <point x="361" y="215" type="line"/>
      <point x="346" y="106"/>
      <point x="267" y="-9"/>
      <point x="193" y="-9" type="qcurve" smooth="yes"/>
      <point x="115" y="-9"/>
      <point x="8" y="210"/>
    </contour>
    <contour>
      <point x="217" y="-410" type="line"/>
      <point x="217" y="-320" type="line"/>
      <point x="270" y="-320" type="line"/>
      <point x="277" y="219" type="line"/>
      <point x="279" y="916" type="line"/>
      <point x="342" y="1000" type="line"/>
      <point x="484" y="1000" type="line"/>
      <point x="484" y="910" type="line"/>
      <point x="445" y="907" type="line"/>
      <point x="438" y="428" type="line"/>
      <point x="440" y="-320" type="line"/>
      <point x="482" y="-320" type="line"/>
      <point x="482" y="-410" type="line"/>
    </contour>
  </outline>
</glyph>
<glyph name="s" format="1">
  <advance width="394"/>
  <unicode hex="0073"/>
  <outline>
    <contour>
      <point x="6" y="0" type="line"/>
      <point x="6" y="299" type="line"/>
      <point x="102" y="299" type="line"/>
      <point x="102" y="118" type="line"/>
      <point x="86" y="0" type="line"/>
    </contour>
    <contour>
      <point x="9" y="811" type="qcurve" smooth="yes"/>
      <point x="9" y="905"/>
      <point x="101" y="1016"/>
      <point x="163" y="1016" type="qcurve" smooth="yes"/>
      <point x="205" y="1016"/>
      <point x="264" y="971"/>
      <point x="281" y="938" type="qcurve"/>
      <point x="274" y="850" type="line"/>
      <point x="253" y="883"/>
      <point x="211" y="917"/>
      <point x="181" y="917" type="qcurve" smooth="yes"/>
      <point x="153" y="917"/>
      <point x="122" y="885"/>
      <point x="122" y="855" type="qcurve" smooth="yes"/>
      <point x="122" y="793"/>
      <point x="218" y="669"/>
      <point x="266" y="613" type="qcurve" smooth="yes"/>
      <point x="332" y="537"/>
      <point x="394" y="358"/>
      <point x="394" y="236" type="qcurve" smooth="yes"/>
      <point x="394" y="124"/>
      <point x="301" y="-12"/>
      <point x="211" y="-12" type="qcurve" smooth="yes"/>
      <point x="149" y="-12"/>
      <point x="69" y="70"/>
      <point x="57" y="123" type="qcurve"/>
      <point x="85" y="199" type="line"/>
      <point x="102" y="136"/>
      <point x="168" y="83"/>
      <point x="203" y="83" type="qcurve" smooth="yes"/>
      <point x="238" y="83"/>
      <point x="271" y="138"/>
      <point x="271" y="190" type="qcurve" smooth="yes"/>
      <point x="271" y="261"/>
      <point x="210" y="367"/>
      <point x="146" y="449" type="qcurve" smooth="yes"/>
      <point x="77" y="537"/>
      <point x="9" y="691"/>
    </contour>
    <contour>
      <point x="267" y="886" type="line"/>
      <point x="274" y="1000" type="line"/>
      <point x="364" y="1000" type="line"/>
      <point x="364" y="736" type="line"/>
      <point x="267" y="736" type="line"/>
    </contour>
  </outline>
</glyph>
<glyph name="u" format="1">
  <advance width="524"/>
  <unicode hex="0075"/>
  <outline>
    <contour>
      <point x="6" y="910" type="line"/>
      <point x="6" y="1000" type="line"/>
      <point x="154" y="1000" type="line"/>
      <point x="189" y="1000" type="line"/>
      <point x="214" y="964" type="line"/>
      <point x="214" y="473" type="line"/>
      <point x="214" y="288" type="line" smooth="yes"/>
      <point x="214" y="148"/>
      <point x="232" y="113"/>
      <point x="249" y="113" type="qcurve" smooth="yes"/>
      <point x="271" y="113"/>
      <point x="301" y="157"/>
      <point x="301" y="210" type="qcurve"/>
      <point x="349" y="154" type="line"/>
      <point x="336" y="83"/>
      <point x="248" y="-11"/>
      <point x="182" y="-11" type="qcurve" smooth="yes"/>
      <point x="114" y="-11"/>
      <point x="46" y="84"/>
      <point x="46" y="208" type="qcurve"/>
      <point x="46" y="332"/>
      <point x="49" y="473"/>
      <point x="49" y="473" type="qcurve"/>
      <point x="44" y="910" type="line"/>
    </contour>
    <contour>
      <point x="262" y="910" type="line"/>
      <point x="262" y="1000" type="line"/>
      <point x="410" y="1000" type="line"/>
      <point x="445" y="1000" type="line"/>
      <point x="470" y="964" type="line"/>
      <point x="468" y="473" type="line"/>
      <point x="470" y="81" type="line"/>
      <point x="518" y="81" type="line"/>
      <point x="518" y="-9" type="line"/>
      <point x="332" y="-9" type="line"/>
      <point x="325" y="18" type="line"/>
      <point x="300" y="119" type="line"/>
      <point x="302" y="473" type="line"/>
      <point x="300" y="910" type="line"/>
    </contour>
  </outline>
</glyph>
<glyph name="braceright" format="1">
  <advance width="374"/>
  <unicode hex="007D"/>
  <outline>
    <contour>
      <point x="351" y="481" type="line"/>
      <point x="240" y="481" type="line"/>
      <point x="240" y="364" type="line" smooth="yes"/>
      <point x="240" y="246"/>
      <point x="359" y="-50"/>
      <point x="359" y="-168" type="qcurve" smooth="yes"/>
      <point x="359" y="-327"/>
      <point x="189" y="-495"/>
      <point x="104" y="-495" type="qcurve" smooth="yes"/>
      <point x="65" y="-495"/>
      <point x="31" y="-487"/>
      <point x="11" y="-484" type="qcurve"/>
      <point x="11" y="-372" type="line"/>
      <point x="39" y="-374"/>
      <point x="62" y="-374"/>
      <point x="88" y="-374" type="qcurve" smooth="yes"/>
      <point x="148" y="-374"/>
      <point x="199" y="-278"/>
      <point x="199" y="-180" type="qcurve" smooth="yes"/>
      <point x="199" y="-78"/>
      <point x="83" y="263"/>
      <point x="83" y="354" type="qcurve" smooth="yes"/>
      <point x="83" y="424"/>
      <point x="142" y="534"/>
      <point x="189" y="560" type="qcurve"/>
      <point x="143" y="588"/>
      <point x="83" y="697"/>
      <point x="83" y="792" type="qcurve" smooth="yes"/>
      <point x="83" y="883"/>
      <point x="189" y="1094"/>
      <point x="189" y="1196" type="qcurve" smooth="yes"/>
      <point x="189" y="1294"/>
      <point x="132" y="1388"/>
      <point x="79" y="1388" type="qcurve" smooth="yes"/>
      <point x="52" y="1388"/>
      <point x="37" y="1388"/>
      <point x="9" y="1386" type="qcurve"/>
      <point x="9" y="1500" type="line"/>
      <point x="29" y="1503"/>
      <point x="63" y="1510"/>
      <point x="101" y="1510" type="qcurve" smooth="yes"/>
      <point x="186" y="1510"/>
      <point x="349" y="1343"/>
      <point x="349" y="1184" type="qcurve" smooth="yes"/>
      <point x="349" y="1066"/>
      <point x="239" y="834"/>
      <point x="239" y="751" type="qcurve" smooth="yes"/>
      <point x="239" y="660"/>
      <point x="280" y="612"/>
      <point x="323" y="598" type="qcurve" smooth="yes"/>
      <point x="351" y="589" type="line"/>
    </contour>
  </outline>
</glyph>
<glyph name="asciitilde" format="1">
  <advance width="512"/>
  <unicode hex="007E"/>
  <outline>
    <contour>
      <point x="9" y="601" type="line"/>
      <point x="40" y="694"/>
      <point x="130" y="806"/>
      <point x="174" y="806" type="qcurve"/>
      <point x="316" y="716" type="line"/>
      <point x="346" y="716"/>
      <point x="402" y="760"/>
      <point x="418" y="803" type="qcurve"/>
      <point x="503" y="740" type="line"/>
      <point x="478" y="636"/>
      <point x="396" y="516"/>
      <point x="340" y="516" type="qcurve"/>
      <point x="200" y="603" type="line"/>
      <point x="170" y="603"/>
      <point x="117" y="561"/>
      <point x="92" y="530" type="qcurve"/>
    </contour>
  </outline>
</glyph>
